<!DOCTYPE svg PUBLIC "-//W3C//DTD SVG 1.1//EN" "http://www.w3.org/Graphics/SVG/1.1/DTD/svg11.dtd">
<!-- Uploaded to: SVG Repo, www.svgrepo.com, Transformed by: SVG Repo Mixer Tools -->
<svg fill="#ffffff" height="65px" width="65px" version="1.1" id="Layer_1" xmlns="http://www.w3.org/2000/svg" xmlns:xlink="http://www.w3.org/1999/xlink" viewBox="-102.4 -102.4 716.80 716.80" xml:space="preserve" stroke="#ffffff">
<g id="SVGRepo_bgCarrier" stroke-width="0">
<rect x="-102.4" y="-102.4" width="716.80" height="716.80" rx="358.4" fill="#004699" strokewidth="0"/>
</g>
<g id="SVGRepo_tracerCarrier" stroke-linecap="round" stroke-linejoin="round"/>
<g id="SVGRepo_iconCarrier"> <g> <g> <g> <path d="M151.147,400.576c1.771,2.667,4.651,4.395,7.829,4.693c0.363,0.021,0.704,0.043,1.045,0.043 c2.816,0,5.525-1.109,7.552-3.115l42.667-42.667c3.584-3.584,4.16-9.237,1.344-13.461l-42.667-64 c-1.771-2.667-4.651-4.395-7.829-4.693c-3.2-0.235-6.336,0.811-8.597,3.072l-42.667,42.667c-3.584,3.584-4.16,9.237-1.344,13.461 L151.147,400.576z"/> <path d="M352.001,106.667c29.461,0,53.333-23.872,53.333-53.333C405.334,23.872,381.462,0,352.001,0 c-29.44,0-53.333,23.872-53.333,53.333C298.667,82.795,322.561,106.667,352.001,106.667z"/> <path d="M247.937,320.32c-5.717-1.451-11.52,2.027-12.928,7.765l-40.683,162.581h-68.651L85.014,328.085 c-1.429-5.739-7.232-9.216-12.928-7.765c-5.717,1.429-9.195,7.211-7.765,12.928l42.667,170.667 c1.173,4.757,5.44,8.085,10.347,8.085h85.333c4.885,0,9.152-3.328,10.347-8.085l42.667-170.667 C257.11,327.552,253.654,321.749,247.937,320.32z"/> <path d="M394.667,128h-76.693c-22.229,0-43.136,9.792-57.365,26.859L229.675,192h-48.341c-17.621,0-32,14.357-32,32 s14.379,32,32,32h64c2.112,0,4.16-0.619,5.909-1.792l47.424-31.616V480c0,17.643,14.357,32,32,32 c8.192,0,15.659-3.093,21.333-8.171c5.675,5.077,13.141,8.171,21.333,8.171c17.643,0,32-14.357,32-32V339.52 c3.328,1.173,6.955,1.813,10.667,1.813c17.643,0,32-14.357,32-32v-128C448.001,151.936,424.065,128,394.667,128z"/> </g> </g> </g> </g>
</svg>