<!DOCTYPE svg PUBLIC "-//W3C//DTD SVG 1.1//EN" "http://www.w3.org/Graphics/SVG/1.1/DTD/svg11.dtd">
<!-- Uploaded to: SVG Repo, www.svgrepo.com, Transformed by: SVG Repo Mixer Tools -->
<svg fill="#ffffff" height="800px" width="800px" version="1.1" id="Layer_1" xmlns="http://www.w3.org/2000/svg" xmlns:xlink="http://www.w3.org/1999/xlink" viewBox="-92.16 -92.16 696.32 696.32" xml:space="preserve" stroke="#ffffff">
<g id="SVGRepo_bgCarrier" stroke-width="0">
<rect x="-92.16" y="-92.16" width="696.32" height="696.32" rx="348.16" fill="#004699" strokewidth="0"/>
</g>
<g id="SVGRepo_tracerCarrier" stroke-linecap="round" stroke-linejoin="round"/>
<g id="SVGRepo_iconCarrier"> <g> <g> <path d="M456.348,38.957c-9.22,0-16.696,7.475-16.696,16.696V77.82C391.81,28.482,325.852,0,256,0C114.842,0,0,114.842,0,256 c0,24.278,3.413,48.314,10.144,71.443c2.576,8.852,11.839,13.942,20.696,11.365c8.853-2.577,13.942-11.843,11.365-20.696 c-5.849-20.096-8.814-40.993-8.814-62.112c0-122.746,99.862-222.609,222.609-222.609c62.897,0,122.174,26.568,164.092,72.348 h-30.526c-9.22,0-16.696,7.475-16.696,16.696c0,9.22,7.475,16.696,16.696,16.696c12.023,0,59.835,0,66.783,0 c9.22,0,16.696-7.475,16.696-16.696V55.652C473.043,46.432,465.568,38.957,456.348,38.957z"/> </g> </g> <g> <g> <path d="M501.854,184.552c-2.578-8.853-11.837-13.94-20.697-11.364c-8.853,2.577-13.941,11.843-11.364,20.696 c5.85,20.099,8.816,40.998,8.816,62.117c0,122.746-99.862,222.609-222.609,222.609c-62.884,0-122.172-26.574-164.092-72.352 h32.882c9.22,0,16.696-7.475,16.696-16.696c0-9.22-7.475-16.584-16.696-16.584H58.007c-10.033,0-18.905,9.186-16.696,20.123 v63.244c0,9.22,7.475,16.696,16.696,16.696s16.473-7.475,16.473-16.696v-19.755C122.124,484.444,187.305,512,256,512 c141.158,0,256-114.842,256-256C512,231.721,508.586,207.683,501.854,184.552z"/> </g> </g> <g> <g> <path d="M367.979,355.498l-34.066-34.066v-59.867c0-64.442-52.428-116.87-116.87-116.87h-66.783 c-9.22,0-16.696,7.475-16.696,16.696v66.783c0,64.442,52.428,116.87,116.87,116.87h59.867l34.066,34.066 c6.519,6.52,17.091,6.521,23.611,0C374.499,372.589,374.499,362.018,367.979,355.498z M300.522,288.041l-71.673-71.673 c-6.519-6.52-17.091-6.52-23.611,0s-6.52,17.091,0,23.611l71.673,71.673h-26.476c-46.03,0-83.478-37.448-83.478-83.478v-50.087 h50.087c46.03,0,83.478,37.448,83.478,83.478V288.041z"/> </g> </g> </g>
</svg>