<?xml version="1.0" encoding="UTF-8" standalone="no"?>
<!-- Uploaded to: SVG Repo, www.svgrepo.com, Transformed by: SVG Repo Mixer Tools -->

<svg
   width="65px"
   height="65px"
   viewBox="-8.4 -8.4 40.80 40.80"
   fill="none"
   stroke="#ffffff"
   version="1.1"
   id="svg1"
   xml:space="preserve"
   xmlns="http://www.w3.org/2000/svg"
   xmlns:svg="http://www.w3.org/2000/svg"><defs
     id="defs1"><linearGradient
       id="swatch7"><stop
         style="stop-color:#ffffff;stop-opacity:0;"
         offset="0"
         id="stop7" /></linearGradient></defs><g
     id="SVGRepo_bgCarrier"
     stroke-width="0"
     style="display:inline;fill:#004699;fill-opacity:1"><rect
       x="-8.3999996"
       y="-8.3999996"
       width="40.799999"
       height="40.799999"
       rx="20.4"
       fill="#004699"
       strokewidth="0"
       id="rect1"
       style="fill:#004699;fill-opacity:1" /></g><g
     id="g15"
     transform="matrix(0.62769231,0,0,0.62769231,-8.4229183,-8.0018594)"
     style="fill:#ffffff;fill-opacity:1;stroke:none;stroke-opacity:1"><path
       class="cls-2"
       d="m 5.0349152,49.41257 c 0.4378948,0.683844 0.9681579,1.309561 1.4539474,1.966051 l -0.051316,0.05129 C 5.9585994,50.780258 5.4796521,50.096414 5.0349152,49.41257 Z"
       id="path2"
       style="display:inline;fill:#ffffff;fill-opacity:1;stroke:none;stroke-width:3.42014;stroke-opacity:1" /><path
       class="cls-2"
       d="m 17.863862,61.024236 c 0.55079,0.280376 1.063948,0.618878 1.628421,0.868481 -0.547368,-0.273537 -1.128947,-0.547075 -1.676315,-0.820612 z"
       id="path3"
       style="display:inline;fill:#ffffff;fill-opacity:1;stroke:none;stroke-width:3.42014;stroke-opacity:1" /><path
       class="cls-3"
       d="M 33.395441,45.514662 17.863862,61.024236 A 32.623157,32.605666 0 0 1 6.4751784,51.378621 L 22.858599,34.983469 Z"
       id="path4"
       style="fill:#ffffff;fill-opacity:1;stroke:none;stroke-width:3.42014;stroke-opacity:1" /><path
       class="cls-3"
       d="M 21.182283,33.308052 5.0349152,49.41257 c -0.65,-1.059957 -1.2657894,-2.154107 -1.8131578,-3.282449 L 18.650704,30.743638 Z"
       id="path5"
       style="display:inline;fill:#ffffff;fill-opacity:1;stroke:none;stroke-width:3.42014;stroke-opacity:1" /><path
       class="cls-3"
       d="m 41.058599,12.621781 a 1.5428947,1.5420675 0 0 0 -1.505263,1.504456 1.235,1.2343378 0 0 0 0.205263,0.683844 l -5.16579,5.197212 0.581579,0.581267 5.16579,-5.16302 a 1.2657894,1.2651108 0 0 0 0.718421,0.205153 1.5189473,1.5181329 0 0 0 1.505263,-1.504456 1.5428947,1.5420675 0 0 0 -1.505263,-1.504456 z m 0,2.222492 a 0.72184209,0.72145507 0 0 1 -0.718421,-0.718036 0.74578946,0.74538959 0 0 1 0.718421,-0.718035 0.72184209,0.72145507 0 0 1 0.718421,0.718035 0.70131577,0.70093976 0 0 1 -0.718421,0.718036 z"
       id="path6"
       style="fill:#ffffff;fill-opacity:1;stroke:none;stroke-width:3.42014;stroke-opacity:1" /><path
       class="cls-3"
       d="m 44.821757,12.382436 a 1.4881579,1.48736 0 0 0 -1.471053,1.504456 1.5565789,1.5557443 0 0 0 0.171053,0.683844 l -7.11579,7.146166 0.581579,0.581267 7.15,-7.111974 a 1.5565789,1.5557443 0 0 0 0.684211,0.170961 1.4676315,1.4668447 0 0 0 1.505263,-1.470264 1.495,1.4941984 0 0 0 -1.505263,-1.504456 z m 0,2.222492 a 0.71842119,0.718036 0 0 1 0,-1.436072 0.71842119,0.718036 0 0 1 0,1.436072 z"
       id="path7"
       style="fill:#ffffff;fill-opacity:1;stroke:none;stroke-width:3.42014;stroke-opacity:1" /><path
       class="cls-3"
       d="m 44.719125,16.211961 a 1.5121052,1.5112945 0 0 0 -1.505263,1.470263 1.2657894,1.2651108 0 0 0 0.205263,0.718036 l -5.165789,5.16302 0.581579,0.615459 5.165789,-5.197212 a 1.2657894,1.2651108 0 0 0 0.718421,0.205154 1.495,1.4941984 0 0 0 1.505263,-1.504457 1.5121052,1.5112945 0 0 0 -1.505263,-1.470263 z m 0,2.222492 a 0.71157893,0.71119741 0 0 1 -0.718421,-0.752229 0.71842104,0.71803585 0 1 1 1.436842,0 0.71157893,0.71119741 0 0 1 -0.718421,0.752229 z"
       id="path8"
       style="fill:#ffffff;fill-opacity:1;stroke:none;stroke-width:3.42014;stroke-opacity:1" /><path
       class="cls-3"
       d="m 48.482283,15.938423 a 1.5121052,1.5112945 0 0 0 -1.471053,1.504456 1.5907894,1.5899365 0 0 0 0.171053,0.718036 l -7.11579,7.111974 0.581579,0.615459 7.15,-7.146166 a 1.235,1.2343378 0 0 0 0.684211,0.205153 1.495,1.4941984 0 0 0 1.505263,-1.504456 1.5189473,1.5181329 0 0 0 -1.505263,-1.504456 z m 0,2.222492 a 0.72184209,0.72145507 0 0 1 -0.718421,-0.718036 0.74578946,0.74538959 0 0 1 0.718421,-0.718036 0.72184209,0.72145507 0 0 1 0.718421,0.718036 0.70131577,0.70093976 0 0 1 -0.718421,0.718036 z"
       id="path9"
       style="display:inline;fill:#ffffff;fill-opacity:1;stroke:none;stroke-width:3.42014;stroke-opacity:1" /><path
       class="cls-3"
       d="m 48.448072,19.836332 a 1.495,1.4941984 0 0 0 -1.505263,1.504456 1.2657894,1.2651108 0 0 0 0.205263,0.718036 l -5.2,5.16302 0.61579,0.581267 5.165789,-5.197212 a 1.0742105,1.0736346 0 0 0 0.718421,0.239345 1.5052631,1.5044561 0 0 0 0,-3.008912 z m 0,2.222492 a 0.70131577,0.70093976 0 0 1 -0.718421,-0.718036 0.71842104,0.71803585 0 1 1 1.436842,0 0.70131577,0.70093976 0 0 1 -0.718421,0.718036 z"
       id="path10"
       style="fill:#ffffff;fill-opacity:1;stroke:none;stroke-width:3.42014;stroke-opacity:1" /><path
       class="cls-3"
       d="m 52.21123,19.596987 a 1.5121052,1.5112945 0 0 0 -1.505263,1.470264 1.2657894,1.2651108 0 0 0 0.205263,0.718035 l -7.115789,7.146167 0.581579,0.581267 7.115789,-7.146166 a 1.2657894,1.2651108 0 0 0 0.718421,0.205153 1.495,1.4941984 0 0 0 1.505263,-1.504456 1.5121052,1.5112945 0 0 0 -1.505263,-1.470264 z m 0,2.188299 a 0.68421051,0.68384366 0 0 1 -0.718421,-0.718035 0.74578946,0.74538959 0 0 1 0.718421,-0.718036 0.72184209,0.72145507 0 0 1 0.718421,0.718036 0.68421051,0.68384366 0 0 1 -0.718421,0.718035 z"
       id="path11"
       style="fill:#ffffff;fill-opacity:1;stroke:none;stroke-width:3.42014;stroke-opacity:1" /><polygon
       class="cls-3"
       points="11.37,10.52 10.5,9.65 12.01,8.13 12.89,9.01 "
       id="polygon11"
       style="display:inline;fill:#ffffff;fill-opacity:1;stroke:none;stroke-opacity:1"
       transform="matrix(3.4210526,0,0,3.4192183,0.07438902,-0.37124826)" /><polygon
       class="cls-3"
       points="10.92,7.04 11.8,7.92 10.28,9.43 9.41,8.56 "
       id="polygon12"
       transform="matrix(3.4210526,0,0,3.4192183,0.07438902,-0.37124826)"
       style="fill:#ffffff;fill-opacity:1;stroke:none;stroke-opacity:1" /><polygon
       class="cls-3"
       points="9.86,5.98 10.74,6.86 9.22,8.37 8.35,7.5 "
       id="polygon13"
       transform="matrix(3.4210526,0,0,3.4192183,0.07438902,-0.37124826)"
       style="fill:#ffffff;fill-opacity:1;stroke:none;stroke-opacity:1" /><polygon
       class="cls-3"
       points="8.9,8.5 11.47,11.07 9.68,12.85 7.11,10.28 "
       id="polygon14"
       transform="matrix(3.4210526,0,0,3.4192183,0.07438902,-0.37124826)"
       style="fill:#ffffff;fill-opacity:1;stroke:none;stroke-opacity:1" /><polygon
       class="cls-3"
       points="6.62,9.79 5.99,9.16 7.78,7.38 8.4,8 "
       id="polygon15"
       style="display:inline;fill:#ffffff;fill-opacity:1;stroke:none;stroke-opacity:1"
       transform="matrix(3.4210526,0,0,3.4192183,0.07438902,-0.37124826)" /></g><g
     id="SVGRepo_tracerCarrier"
     stroke-linecap="round"
     stroke-linejoin="round"
     style="display:inline" /><g
     style="display:none;fill:#000000"
     id="g3"
     transform="matrix(0.45784454,0,0,0.45784454,-92.265669,-89.255261)"><g
       id="g2">
	
	<path
   d="m 236.41996,204.21485 c 1.27986,-1.79459 1.98627,-3.96001 1.98627,-6.2004 0,-5.88611 -4.78873,-10.6747 -10.67471,-10.6747 -5.88597,0 -10.67455,4.78859 -10.67455,10.6747 0,2.24039 0.70669,4.40567 1.98684,6.20025 -1.25957,0.33285 -2.19075,1.48232 -2.19075,2.84506 v 2.87413 c 0,1.24115 0.77361,2.30285 1.86294,2.73441 v 41.22554 c 0,0.59618 0.48322,1.07926 1.07925,1.07926 h 15.87283 c 0.59618,0 1.07926,-0.48308 1.07926,-1.07926 v -41.22569 c 1.08933,-0.4317 1.86279,-1.49326 1.86279,-2.7344 v -2.87413 c 0,-1.36245 -0.93089,-2.5115 -2.19017,-2.84477 z m -1.83128,25.95293 -3.93554,3.93539 c -0.42148,0.42149 -0.42163,1.10459 -2.9e-4,1.52607 0.21096,0.21096 0.48711,0.3163 0.7634,0.3163 0.27614,0 0.55243,-0.10534 0.7631,-0.31601 l 2.40933,-2.40933 v 8.35905 l -11.23519,11.23534 h -2.47912 v -5.87993 l 8.25256,-8.25256 c 0.42149,-0.42163 0.42149,-1.10487 0,-1.52636 -0.42177,-0.42134 -1.10487,-0.4212 -1.52636,0 l -6.7262,6.72635 v -8.35919 l 13.71431,-13.71403 z m 0,-11.41191 -13.71431,13.71417 v -8.35905 l 11.23519,-11.23519 h 2.47912 z m -5.53183,-5.87993 -8.18234,8.18249 v -8.18249 z m -2.65065,39.93865 8.18248,-8.18234 v 8.18234 z m 10.04542,-42.88084 c 0,0.43213 -0.3514,0.78368 -0.78354,0.78368 h -15.87283 c -0.43213,0 -0.78368,-0.35155 -0.78368,-0.78368 v -2.87413 c 0,-0.43213 0.35155,-0.78368 0.78368,-0.78368 h 1.57442 c 0.4484,0 0.85002,-0.2773 1.00903,-0.69648 0.15902,-0.41919 0.0423,-0.89305 -0.29326,-1.19035 -1.82395,-1.61658 -2.86996,-3.94015 -2.86996,-6.37466 0,-4.69577 3.82028,-8.51619 8.51604,-8.51619 4.69577,0 8.51619,3.82042 8.51619,8.51619 0,2.41581 -1.02961,4.7221 -2.82693,6.3371 -0.095,0.0747 -0.17138,0.16261 -0.2311,0.25643 -0.15268,0.23399 -0.20923,0.5202 -0.15498,0.79693 0.0178,0.0912 0.0473,0.17901 0.0871,0.26146 0.0517,0.10721 0.11987,0.20334 0.20088,0.28593 0.0763,0.078 0.16491,0.14506 0.26392,0.19758 0.10303,0.055 0.21527,0.0933 0.33284,0.11253 0.0599,0.01 0.11728,0.015 0.18074,0.0141 l 1.5678,-7.2e-4 c 0.43213,0 0.78354,0.35155 0.78354,0.78368 v 2.87428 z"
   id="path2-2"
   style="fill:#ffffff;fill-opacity:1;stroke:#ffffff;stroke-width:0.143901;stroke-opacity:1" />
</g></g><g
     id="layer1" /></svg>
