<!DOCTYPE svg PUBLIC "-//W3C//DTD SVG 1.1//EN" "http://www.w3.org/Graphics/SVG/1.1/DTD/svg11.dtd">
<!-- Uploaded to: SVG Repo, www.svgrepo.com, Transformed by: SVG Repo Mixer Tools -->
<svg version="1.1" id="Icons" xmlns="http://www.w3.org/2000/svg" xmlns:xlink="http://www.w3.org/1999/xlink" viewBox="-6.4 -6.4 44.80 44.80" xml:space="preserve" width="65px" height="65px" fill="#ffffff" stroke="#ffffff">
<g id="SVGRepo_bgCarrier" stroke-width="0">
<rect x="-6.4" y="-6.4" width="44.80" height="44.80" rx="22.4" fill="#004699" strokewidth="0"/>
</g>
<g id="SVGRepo_tracerCarrier" stroke-linecap="round" stroke-linejoin="round"/>
<g id="SVGRepo_iconCarrier"> <style type="text/css"> .st0{fill:none;stroke:#ffffff;stroke-width:2;stroke-linecap:round;stroke-linejoin:round;stroke-miterlimit:10;} .st1{fill:none;stroke:#ffffff;stroke-width:2;stroke-linecap:round;stroke-linejoin:round;} .st2{fill:none;stroke:#ffffff;stroke-width:2;stroke-linecap:round;stroke-linejoin:round;stroke-dasharray:6,6;} .st3{fill:none;stroke:#ffffff;stroke-width:2;stroke-linecap:round;stroke-linejoin:round;stroke-dasharray:4,4;} .st4{fill:none;stroke:#ffffff;stroke-width:2;stroke-linecap:round;} .st5{fill:none;stroke:#ffffff;stroke-width:2;stroke-linecap:round;stroke-dasharray:3.1081,3.1081;} .st6{fill:none;stroke:#ffffff;stroke-width:2;stroke-linecap:round;stroke-linejoin:round;stroke-miterlimit:10;stroke-dasharray:4,3;} </style> <rect x="13" y="3" class="st0" width="6" height="6"/> <line class="st0" x1="15" y1="6" x2="13" y2="6"/> <line class="st0" x1="10" y1="6" x2="9" y2="6"/> <line class="st0" x1="4" y1="6" x2="3" y2="6"/> <line class="st0" x1="7" y1="3" x2="6" y2="3"/> <line class="st0" x1="7" y1="9" x2="6" y2="9"/> <path class="st0" d="M19,9h-6l-3.2,2.4C9.3,11.8,9,12.4,9,13v13.6c0,0.9,0.4,1.8,1,2.4l0,0h12l0,0c0.6-0.6,1-1.5,1-2.4V13 c0-0.6-0.3-1.2-0.8-1.6L19,9z"/> <rect x="9" y="15" class="st0" width="10" height="9"/> </g>
</svg>