<!DOCTYPE svg PUBLIC "-//W3C//DTD SVG 1.1//EN" "http://www.w3.org/Graphics/SVG/1.1/DTD/svg11.dtd">
<!-- Uploaded to: SVG Repo, www.svgrepo.com, Transformed by: SVG Repo Mixer Tools -->
<svg fill="#ffffff" height="65px" width="65px" version="1.1" id="Layer_1" xmlns="http://www.w3.org/2000/svg" xmlns:xlink="http://www.w3.org/1999/xlink" viewBox="-172.03 -172.03 835.58 835.58" xml:space="preserve" stroke="#ffffff">
<g id="SVGRepo_bgCarrier" stroke-width="0">
<rect x="-172.03" y="-172.03" width="835.58" height="835.58" rx="417.79" fill="#004699" strokewidth="0"/>
</g>
<g id="SVGRepo_tracerCarrier" stroke-linecap="round" stroke-linejoin="round"/>
<g id="SVGRepo_iconCarrier"> <g> <g> <g> <path d="M20.48,20.48v409.6v40.96c0,11.305,9.175,20.48,20.48,20.48c11.305,0,20.48-9.175,20.48-20.48v-20.48h163.84V0H40.96 C29.655,0,20.48,9.175,20.48,20.48z M143.36,204.8c0-11.305,9.175-20.48,20.48-20.48c11.305,0,20.48,9.175,20.48,20.48v61.44 c0,11.305-9.175,20.48-20.48,20.48c-11.305,0-20.48-9.175-20.48-20.48V204.8z"/> <path d="M450.56,0H266.24v450.56h163.84v20.48c0,11.305,9.175,20.48,20.48,20.48c11.305,0,20.48-9.175,20.48-20.48v-40.96V20.48 C471.04,9.175,461.865,0,450.56,0z M348.16,266.24c0,11.305-9.175,20.48-20.48,20.48c-11.305,0-20.48-9.175-20.48-20.48V204.8 c0-11.305,9.175-20.48,20.48-20.48c11.305,0,20.48,9.175,20.48,20.48V266.24z"/> </g> </g> </g> </g>
</svg>