<!DOCTYPE svg PUBLIC "-//W3C//DTD SVG 1.1//EN" "http://www.w3.org/Graphics/SVG/1.1/DTD/svg11.dtd">
<!-- Uploaded to: SVG Repo, www.svgrepo.com, Transformed by: SVG Repo Mixer Tools -->
<svg fill="#ffffff" height="65px" width="65px" version="1.1" id="Layer_1" xmlns="http://www.w3.org/2000/svg" xmlns:xlink="http://www.w3.org/1999/xlink" viewBox="-102.4 -102.4 716.80 716.80" xml:space="preserve" stroke="#ffffff">
<g id="SVGRepo_bgCarrier" stroke-width="0">
<rect x="-102.4" y="-102.4" width="716.80" height="716.80" rx="358.4" fill="#004699" strokewidth="0"/>
</g>
<g id="SVGRepo_tracerCarrier" stroke-linecap="round" stroke-linejoin="round"/>
<g id="SVGRepo_iconCarrier"> <g> <g> <path d="M422.763,128h-35.072c-9.148,0-16.597,7.45-16.597,16.606v9.19c-68.71,1.946-108.16,26.974-127.787,45.107v-62.37h15.94 c10.027,0,18.193-8.158,18.193-18.193V86.468c0-10.035-8.166-18.202-18.193-18.202h-15.94V18.202 C243.307,8.166,235.14,0,225.114,0H124.975c-10.035,0-18.202,8.166-18.202,18.202v50.065H90.842 c-10.035,0-18.202,8.166-18.202,18.202v31.872c0,10.035,8.166,18.193,18.202,18.193h15.932v238.933H90.842 c-10.035,0-18.202,8.166-18.202,18.202v31.863c0,10.044,8.166,18.202,18.202,18.202h15.932v50.065 c0,10.044,8.166,18.202,18.202,18.202h100.139c10.027,0,18.193-8.158,18.193-18.202v-50.065h15.94 c10.027,0,18.193-8.158,18.193-18.202v-31.863c0-10.035-8.166-18.202-18.193-18.202h-15.94v-32.444 c5.922-10.675,40.969-66.108,127.787-69.615v8.661c0,9.156,7.45,16.597,16.597,16.597h35.072c9.148,0,16.597-7.441,16.597-16.597 V144.606C439.36,135.45,431.91,128,422.763,128z M259.247,392.533c0.623,0,1.126,0.512,1.126,1.135v31.863 c0,0.631-0.503,1.135-1.126,1.135h-24.474H115.307H90.842c-0.623,0-1.135-0.503-1.135-1.135v-31.863 c0-0.623,0.512-1.135,1.135-1.135h24.465h119.467H259.247z M234.773,119.467H115.307H90.842c-0.623,0-1.135-0.503-1.135-1.126 V86.468c0-0.623,0.512-1.135,1.135-1.135h24.465h119.467h24.474c0.623,0,1.126,0.512,1.126,1.135v31.872 c0,0.623-0.503,1.126-1.126,1.126H234.773z M388.16,282.069l-0.06-17.246c0-0.102,0.06-0.179,0.06-0.29v-102.4 c0-0.725-0.239-1.382-0.418-2.057l-0.051-15.01h34.603l0.469,136.533L388.16,282.069z"/> </g> </g> </g>
</svg>