<?xml version="1.0" encoding="UTF-8" standalone="no"?>
<!-- Uploaded to: SVG Repo, www.svgrepo.com, Transformed by: SVG Repo Mixer Tools -->

<svg
   width="65px"
   height="65px"
   viewBox="-8.4 -8.4 40.80 40.80"
   fill="none"
   stroke="#ffffff"
   version="1.1"
   id="svg1"
   sodipodi:docname="Omgevingsrecht.svg"
   xml:space="preserve"
   inkscape:version="1.3.2 (091e20e, 2023-11-25, custom)"
   xmlns:inkscape="http://www.inkscape.org/namespaces/inkscape"
   xmlns:sodipodi="http://sodipodi.sourceforge.net/DTD/sodipodi-0.dtd"
   xmlns="http://www.w3.org/2000/svg"
   xmlns:svg="http://www.w3.org/2000/svg"><defs
     id="defs1"><linearGradient
       id="swatch7"
       inkscape:swatch="solid"><stop
         style="stop-color:#ffffff;stop-opacity:0;"
         offset="0"
         id="stop7" /></linearGradient></defs><sodipodi:namedview
     id="namedview1"
     pagecolor="#ffffff"
     bordercolor="#000000"
     borderopacity="0.25"
     inkscape:showpageshadow="2"
     inkscape:pageopacity="0.0"
     inkscape:pagecheckerboard="0"
     inkscape:deskcolor="#d1d1d1"
     inkscape:zoom="7.1423077"
     inkscape:cx="47.953689"
     inkscape:cy="43.053312"
     inkscape:window-width="3840"
     inkscape:window-height="2071"
     inkscape:window-x="-9"
     inkscape:window-y="-9"
     inkscape:window-maximized="1"
     inkscape:current-layer="svg1" /><g
     id="SVGRepo_bgCarrier"
     stroke-width="0"
     style="display:inline"><rect
       x="-8.3999996"
       y="-8.3999996"
       width="40.799999"
       height="40.799999"
       rx="20.4"
       fill="#004699"
       strokewidth="0"
       id="rect1" /></g><g
     id="SVGRepo_tracerCarrier"
     stroke-linecap="round"
     stroke-linejoin="round"
     style="display:inline" /><g
     id="SVGRepo_iconCarrier"
     style="display:none"
     inkscape:label="Paal"
     transform="translate(0.07103343,-0.44900262)"><g
       id="g1"
       transform="matrix(0.34415662,0,0,0.34415662,5.1625078,-4.6475851)"
       style="display:inline;stroke:none;stroke-opacity:1"><path
         fill="#010101"
         d="M 26.608,7.793 C 26.518,6.18 26.071,1.156 19.352,0.976 12.634,0.797 12.454,7.605 12.454,7.605 c 0,0 7.912,2.014 14.154,0.188 z"
         id="path1-1"
         style="display:inline;fill:#ffffff;fill-opacity:1;stroke:none;stroke-opacity:1" /><path
         fill="#010101"
         d="m 26.738,15.141 c -6.795,1.638 -14.486,0 -14.486,0 0,0 -3.114,61.58 -3.24,80.237 -0.012,1.721 4.046,3.003 10.726,3.003 6.682,0 10.573,-1.643 10.572,-3.584 C 30.306,84.296 26.738,15.141 26.738,15.141 Z m -13.152,12.188 0.939,-0.966 c 0.07,-0.072 0.164,-0.113 0.264,-0.113 0.099,0 0.192,0.04 0.264,0.111 l 1.498,1.542 1.499,-1.541 c 0.069,-0.072 0.163,-0.113 0.263,-0.113 0.101,0 0.195,0.041 0.265,0.114 l 0.939,0.964 c 0.144,0.151 0.144,0.393 0.001,0.541 l -1.5,1.542 1.499,1.542 c 0.145,0.148 0.145,0.39 0.001,0.54 l -0.94,0.967 c -0.07,0.072 -0.164,0.112 -0.263,0.112 -0.101,0 -0.193,-0.04 -0.264,-0.112 l -1.5,-1.542 -1.499,1.542 c -0.07,0.072 -0.164,0.112 -0.263,0.112 -0.099,0 -0.193,-0.04 -0.263,-0.112 l -0.939,-0.966 c -0.145,-0.149 -0.145,-0.392 0,-0.541 l 1.499,-1.542 -1.499,-1.54 c -0.071,-0.072 -0.109,-0.169 -0.109,-0.271 -10e-4,-0.101 0.038,-0.198 0.108,-0.27 z m 5.927,12.481 -0.973,1.001 c -0.073,0.075 -0.17,0.115 -0.271,0.115 -0.103,0 -0.2,-0.041 -0.272,-0.114 l -1.554,-1.597 -1.552,1.596 c -0.073,0.075 -0.169,0.115 -0.272,0.115 -0.103,0 -0.199,-0.041 -0.271,-0.114 L 13.375,39.81 c -0.073,-0.074 -0.113,-0.173 -0.113,-0.279 0,-0.106 0.04,-0.206 0.113,-0.282 l 1.551,-1.595 -1.551,-1.596 c -0.073,-0.074 -0.113,-0.173 -0.113,-0.279 0,-0.106 0.041,-0.207 0.113,-0.281 l 0.972,-1 c 0.073,-0.075 0.17,-0.117 0.272,-0.117 0.102,0 0.199,0.041 0.272,0.115 l 1.552,1.597 1.552,-1.595 c 0.072,-0.075 0.17,-0.117 0.272,-0.117 0.104,0 0.201,0.042 0.273,0.118 l 0.973,0.999 c 0.149,0.156 0.149,0.408 0,0.561 l -1.552,1.596 1.552,1.596 c 0.15,0.153 0.15,0.404 0,0.559 z m 0.338,-16.432 -0.926,0.951 c -0.069,0.071 -0.161,0.11 -0.259,0.11 -0.099,0 -0.19,-0.039 -0.26,-0.111 l -1.477,-1.518 -1.476,1.518 c -0.07,0.072 -0.162,0.11 -0.261,0.11 -0.098,0 -0.19,-0.039 -0.26,-0.111 l -0.925,-0.951 c -0.143,-0.147 -0.143,-0.386 0,-0.533 l 1.477,-1.518 -1.477,-1.518 c -0.143,-0.148 -0.143,-0.387 0,-0.533 l 0.926,-0.952 c 0.072,-0.071 0.164,-0.11 0.26,-0.11 0.098,0 0.189,0.039 0.26,0.11 l 1.476,1.518 1.476,-1.518 c 0.071,-0.071 0.163,-0.11 0.261,-0.11 0.098,0 0.188,0.039 0.258,0.11 l 0.927,0.952 c 0.142,0.146 0.142,0.385 0.001,0.532 l -1.478,1.52 1.477,1.518 c 0.141,0.147 0.141,0.386 0,0.534 z"
         id="path2"
         style="fill:#ffffff;fill-opacity:1;stroke:none;stroke-width:0.999473;stroke-dasharray:none;stroke-opacity:1" /><path
         fill="#010101"
         d="m 27.799,13.439 c 0,0.327 -0.134,0.593 -0.463,0.593 0,0 -3.714,0.627 -4.985,0.716 -1.317,0.093 -3.935,0.088 -5.252,0 -1.341,-0.089 -5.282,-0.716 -5.282,-0.716 -0.327,0 -0.553,-0.266 -0.553,-0.593 V 9.25 c 0,-0.328 0.243,-0.592 0.57,-0.592 0,0 3.768,0.627 5.04,0.717 1.251,0.089 3.76,0.094 5.011,0 1.405,-0.106 5.454,-0.717 5.454,-0.717 0.33,0 0.461,0.265 0.461,0.592 v 4.189 z"
         id="path3"
         style="fill:#ffffff;fill-opacity:1;stroke:none;stroke-opacity:1" /></g><rect
       style="fill:#010101;fill-opacity:1;stroke:none;stroke-width:0.627692;stroke-opacity:1"
       id="rect121"
       width="3.0100167"
       height="8.3928919"
       x="9.4843302"
       y="1.3770601" /><path
       style="fill:#ffffff;fill-opacity:1;stroke:none;stroke-width:0.0700054;stroke-opacity:1"
       d="m 30.41734,59.808231 c -2.152136,-0.210509 -3.546706,-0.704358 -3.789059,-1.341793 -0.173958,-0.457545 0.362947,-15.433651 1.163695,-32.459437 0.47085,-10.011372 0.550308,-11.555279 0.597464,-11.609024 0.02805,-0.03197 0.377675,-0.0081 0.776934,0.05316 2.175692,0.333558 4.59493,0.333365 6.421788,-5.14e-4 0.322009,-0.05885 0.599543,-0.09293 0.616744,-0.07573 0.03814,0.03814 0.119933,1.586741 0.61435,11.632108 0.825158,16.765236 1.233841,26.009744 1.340053,30.312331 l 0.04493,1.82014 -0.166463,0.242067 c -0.470865,0.684725 -1.57676,1.129537 -3.403678,1.369025 -0.721097,0.09453 -3.457351,0.131948 -4.216759,0.05767 z"
       id="path121"
       transform="matrix(0.62769231,0,0,0.62769231,-8.4,-8.4)" /><path
       style="fill:#ffffff;fill-opacity:1;stroke:none;stroke-width:0.0700054;stroke-opacity:1"
       d="m 30.907377,14.024461 c -0.856335,-0.08463 -2.919931,-0.402131 -2.99273,-0.460456 -0.06425,-0.05148 -0.08751,-0.409762 -0.08751,-1.348065 0,-1.059961 0.01821,-1.293073 0.106775,-1.366572 0.08696,-0.07217 0.35655,-0.05102 1.452612,0.113937 1.182969,0.178042 1.532214,0.202112 2.885954,0.1989 1.290023,-0.0031 1.765473,-0.03522 2.927873,-0.198029 0.763264,-0.106907 1.433359,-0.176875 1.4891,-0.155486 0.08463,0.03248 0.09821,0.267078 0.08236,1.422712 l -0.01899,1.383821 -0.770059,0.122834 c -1.622153,0.258753 -2.460286,0.332891 -3.63819,0.321822 -0.6557,-0.0062 -1.30244,-0.0221 -1.437201,-0.03542 z"
       id="path122"
       transform="matrix(0.62769231,0,0,0.62769231,-8.4,-8.4)" /><path
       style="fill:#ffffff;fill-opacity:1;stroke:#ffffff;stroke-width:0;stroke-dasharray:none;stroke-opacity:1"
       d="m 31.250725,10.562081 c -0.67954,-0.06018 -2.720472,-0.384906 -2.777477,-0.441911 -0.08425,-0.08425 0.222651,-1.1896033 0.467713,-1.6845211 0.640884,-1.2943065 1.604567,-1.8551427 3.187687,-1.8551427 1.349841,0 2.261057,0.3208839 2.994784,1.0546118 0.468751,0.46875 0.774857,1.0572261 0.929403,1.786736 0.155832,0.735579 0.147325,0.782206 -0.157574,0.863719 -1.21701,0.325359 -2.936852,0.427749 -4.644536,0.276508 z"
       id="path123"
       transform="matrix(0.62769231,0,0,0.62769231,-8.4,-8.4)" /></g><path
     fill="#000000"
     d="m 23.9761,16.499691 c -2.409066,0 -4.36124,-2.007554 -4.36124,-4.49969 0,-2.4782919 1.952174,-4.4996919 4.36124,-4.4996919 2.409067,0 4.36124,2.007555 4.36124,4.4996919 0,2.478291 -1.952173,4.49969 -4.36124,4.49969 z m -11.976101,0 c -2.4090655,0 -4.3612385,-2.007554 -4.3612385,-4.49969 0,-2.4782919 1.952173,-4.4996919 4.3612385,-4.4996919 2.409066,0 4.36124,2.007555 4.36124,4.4996919 0,2.478291 -1.952174,4.49969 -4.36124,4.49969 z m -11.9761005,0 c -2.409065,0 -4.361239,-2.021399 -4.361239,-4.49969 0,-2.4782919 1.952174,-4.4996919 4.361239,-4.4996919 2.409066,0 4.361239,2.007555 4.361239,4.4996919 0.01384,2.478291 -1.938329,4.49969 -4.361239,4.49969 z"
     id="path1"
     style="display:none;fill:#ffffff;fill-opacity:1;stroke-width:0.138452"
     inkscape:label="Overig" /><g
     transform="matrix(0.02461548,0,0,-0.02461548,-25.014744,33.255467)"
     fill="#000000"
     stroke="none"
     id="g6"
     style="display:inline;fill:#ffffff;fill-opacity:1"
     inkscape:label="Omgevingsrecht"><path
       d="m 1139,1265 c 0,0 -1,-33 -2,-73 -1,-39 0,-72 1,-72 2,0 17,9 33,21 26,18 29,26 29,72 0,51 -1,52 -30,52 -16,0 -30,0 -31,0 z"
       id="path1-0"
       style="fill:#ffffff;fill-opacity:1" /><path
       d="m 1205,1138 c -88,-71 -163,-132 -167,-136 -4,-4 1,-18 11,-31 l 18,-24 150,121 150,120 151,-118 151,-118 16,25 c 9,14 13,29 8,33 -7,7 -200,158 -293,230 l -35,27 z"
       id="path2-1"
       style="fill:#ffffff;fill-opacity:1" /><path
       d="M 1243,1052 1120,956 V 718 480 h -75 -75 v 65 c 0,65 0,65 28,65 39,0 64,30 61,72 -2,18 1,46 6,62 7,26 4,33 -21,53 -16,13 -40,34 -54,47 -38,36 -63,40 -94,15 -24,-19 -27,-27 -22,-57 4,-29 1,-38 -19,-54 -63,-49 4,-151 79,-122 23,9 20,22 -14,51 -17,13 -27,29 -24,35 3,5 16,0 30,-13 l 24,-22 v 61 c 0,35 4,62 10,62 6,0 10,-12 10,-26 0,-22 3,-24 14,-15 23,19 28,-4 6,-24 -15,-13 -20,-31 -20,-67 0,-26 -4,-48 -10,-48 -6,0 -10,-30 -10,-70 0,-68 -1,-70 -25,-70 -14,0 -25,-4 -25,-10 0,-7 170,-10 491,-10 462,0 490,1 487,18 -2,9 -13,21 -26,27 -12,5 -22,15 -22,22 0,17 -35,34 -54,27 -9,-3 -16,-1 -16,5 0,5 -9,15 -21,21 -16,9 -26,8 -45,-5 -13,-8 -24,-21 -24,-28 0,-23 -25,-67 -37,-67 -10,0 -13,54 -13,238 l -1,237 -91,70 c -51,39 -108,82 -127,96 l -36,26 z m 171,24 c 6,-7 46,-39 89,-71 42,-32 77,-63 77,-69 4,-474 8,-444 -57,-444 -50,0 -63,19 -63,91 0,34 -4,67 -8,74 -21,33 -129,38 -163,7 -15,-14 -19,-31 -19,-84 0,-74 -7,-85 -55,-88 -64,-6 -66,1 -66,230 0,142 3,212 11,224 7,11 43,41 81,68 37,27 76,57 86,68 20,22 67,19 87,-6 z M 947,815 c -9,-7 -24,-27 -32,-46 l -15,-34 6,40 c 9,60 11,64 35,58 20,-6 20,-7 6,-18 z m 76,-158 c -10,-16 -22,18 -16,44 7,24 7,24 14,-5 5,-16 5,-34 2,-39 z m 407,-87 v -90 h -65 -65 v 90 90 h 65 65 z m 323,-45 c 8,-8 17,-12 20,-9 3,3 8,1 12,-5 4,-7 -9,-11 -39,-11 -43,0 -47,4 -37,38 3,8 32,0 44,-13 z"
       id="path3-4"
       style="fill:#ffffff;fill-opacity:1" /><path
       d="m 1355,1043 c -35,-9 -75,-54 -75,-86 0,-36 49,-87 83,-87 38,0 87,46 87,80 0,42 -20,80 -42,80 -11,0 -16,5 -13,10 6,10 -5,11 -40,3 z m 50,-48 c 29,-28 31,-42 9,-73 -29,-42 -104,-18 -104,35 0,26 32,63 55,63 9,0 27,-11 40,-25 z"
       id="path4"
       style="fill:#ffffff;fill-opacity:1" /><path
       d="m 1948,1004 c -32,-17 -43,-50 -35,-100 5,-27 2,-36 -14,-44 -30,-17 -52,-68 -45,-106 8,-42 57,-84 97,-84 36,0 69,16 69,33 0,12 -82,87 -94,87 -12,0 -5,-16 20,-45 20,-24 23,-31 10,-33 -24,-5 -55,17 -62,43 -6,25 12,85 26,85 13,0 31,52 24,72 -3,10 1,30 10,43 25,38 59,32 102,-15 20,-22 45,-40 54,-40 26,0 30,-23 22,-114 -7,-76 -8,-80 -34,-87 -28,-7 -28,-7 -28,42 0,35 6,58 21,78 24,33 18,49 -34,90 l -30,25 -18,-23 c -11,-14 -19,-39 -19,-62 0,-29 -3,-37 -14,-33 -29,11 -25,-15 6,-42 l 33,-27 3,81 c 2,45 7,82 12,82 6,0 10,-16 10,-37 0,-34 1,-35 18,-20 29,27 35,6 7,-23 -24,-25 -26,-34 -23,-96 l 3,-69 36,-3 c 24,-2 43,3 60,17 20,16 24,29 25,83 1,34 5,75 9,90 6,22 2,33 -23,58 -17,16 -39,30 -50,30 -13,0 -22,9 -26,25 -7,26 -52,55 -83,55 -10,-1 -30,-7 -45,-16 z"
       id="path5"
       style="fill:#ffffff;fill-opacity:1" /><path
       d="M 2020,581 V 480 h -30 c -16,0 -30,-4 -30,-10 0,-6 28,-10 65,-10 37,0 65,4 65,10 0,6 -11,10 -25,10 -25,0 -25,0 -25,94 0,53 -4,98 -10,101 -6,4 -10,-30 -10,-94 z"
       id="path6"
       style="fill:#ffffff;fill-opacity:1" /></g></svg>
