<!DOCTYPE svg PUBLIC "-//W3C//DTD SVG 1.1//EN" "http://www.w3.org/Graphics/SVG/1.1/DTD/svg11.dtd">
<!-- Uploaded to: SVG Repo, www.svgrepo.com, Transformed by: SVG Repo Mixer Tools -->
<svg fill="#ffffff" version="1.1" id="Layer_1" xmlns="http://www.w3.org/2000/svg" xmlns:xlink="http://www.w3.org/1999/xlink" viewBox="-179.2 -179.2 870.40 870.40" xml:space="preserve" width="65px" height="65px" stroke="#ffffff">
<g id="SVGRepo_bgCarrier" stroke-width="0">
<rect x="-179.2" y="-179.2" width="870.40" height="870.40" rx="435.2" fill="#004699" strokewidth="0"/>
</g>
<g id="SVGRepo_tracerCarrier" stroke-linecap="round" stroke-linejoin="round"/>
<g id="SVGRepo_iconCarrier"> <g> <g> <path d="M256,7.63c-123.451,0-224.153,100.434-224.153,223.885V433.33h448.306V231.515C480.153,108.064,379.451,7.63,256,7.63z M316.904,125.885h-16.86c-5.37,18.373-23.074,33.474-44.043,33.474c-20.969,0-38.673-15.1-44.043-33.474h-16.86 c-6.765,0-12.249-5.484-12.249-12.249s5.484-12.249,12.249-12.249h16.86c5.37-19.598,23.074-33.474,44.043-33.474 c20.969,0,38.673,13.875,44.043,33.474h16.86c6.765,0,12.249,5.484,12.249,12.249S323.669,125.885,316.904,125.885z"/> </g> </g> <g> <g> <rect y="457.825" width="512" height="46.545"/> </g> </g> <g> <g> <path d="M256,91.929c-11.704,0-21.225,9.521-21.225,21.225s9.521,21.225,21.225,21.225s21.225-9.521,21.225-21.225 S267.704,91.929,256,91.929z"/> </g> </g> </g>
</svg>