<?xml version="1.0" encoding="UTF-8" standalone="no"?>
<svg
   width="32"
   height="32"
   viewBox="0 0 32 32"
   fill="none"
   version="1.1"
   id="svg2"
   xmlns="http://www.w3.org/2000/svg"
   xmlns:svg="http://www.w3.org/2000/svg">
  <defs
     id="defs2" />
  <circle
     cx="16"
     cy="16"
     r="15"
     fill="#009dec"
     stroke="#ffffff"
     stroke-width="2"
     id="circle1"
     style="display:inline" />
  <circle
     cx="16"
     cy="16"
     r="15"
     fill="#004699"
     stroke="#ffffff"
     stroke-width="2"
     id="circle2"
     style="display:inline" />
  <path
     fill="#000000"
     d="m 21.435572,18.042267 c -1.093399,0 -1.979428,-0.911165 -1.979428,-2.042266 0,-1.124818 0.886029,-2.042268 1.979428,-2.042268 1.093398,0 1.979428,0.911166 1.979428,2.042268 0,1.124817 -0.88603,2.042266 -1.979428,2.042266 z m -5.435572,0 c -1.093398,0 -1.979428,-0.911165 -1.979428,-2.042266 0,-1.124818 0.88603,-2.042268 1.979428,-2.042268 1.093399,0 1.979429,0.911166 1.979429,2.042268 0,1.124817 -0.88603,2.042266 -1.979429,2.042266 z m -5.435571,0 c -1.0933989,0 -1.9794287,-0.917449 -1.9794287,-2.042266 0,-1.124818 0.8860298,-2.042268 1.9794287,-2.042268 1.093398,0 1.979428,0.911166 1.979428,2.042268 0.0063,1.124817 -0.879747,2.042266 -1.979428,2.042266 z"
     id="path1-9"
     style="display:inline;fill:#ffffff;fill-opacity:1;stroke-width:0.0628392" />
</svg>
