<?xml version="1.0" encoding="UTF-8" standalone="no"?>
<!-- Uploaded to: SVG Repo, www.svgrepo.com, Transformed by: SVG Repo Mixer Tools -->

<svg
   width="65px"
   height="65px"
   viewBox="-8.4 -8.4 40.80 40.80"
   fill="none"
   stroke="#ffffff"
   version="1.1"
   id="svg1"
   xml:space="preserve"
   xmlns="http://www.w3.org/2000/svg"
   xmlns:svg="http://www.w3.org/2000/svg"><defs
     id="defs1"><linearGradient
       id="swatch7"><stop
         style="stop-color:#ffffff;stop-opacity:0;"
         offset="0"
         id="stop7" /></linearGradient></defs><g
     id="SVGRepo_bgCarrier"
     stroke-width="0"
     style="display:inline"><rect
       x="-8.3999996"
       y="-8.3999996"
       width="40.799999"
       height="40.799999"
       rx="20.4"
       fill="#004699"
       strokewidth="0"
       id="rect1" /></g><g
     id="SVGRepo_tracerCarrier"
     stroke-linecap="round"
     stroke-linejoin="round"
     style="display:inline" /><path
     fill="#000000"
     d="m 21.594455,15.604853 c -1.929983,0 -3.493932,-1.608318 -3.493932,-3.604851 0,-1.985443 1.563949,-3.604855 3.493932,-3.604855 1.929985,0 3.493936,1.608321 3.493936,3.604855 0,1.985442 -1.563951,3.604851 -3.493936,3.604851 z m -9.594454,0 c -1.929983,0 -3.4939364,-1.608318 -3.4939364,-3.604851 0,-1.985443 1.5639534,-3.604855 3.4939364,-3.604855 1.929985,0 3.493937,1.608321 3.493937,3.604855 0,1.985442 -1.563952,3.604851 -3.493937,3.604851 z m -9.5944559,0 c -1.92998369,0 -3.4939357,-1.619409 -3.4939357,-3.604851 0,-1.985443 1.56395201,-3.604855 3.4939357,-3.604855 1.9299836,0 3.4939355,1.608321 3.4939355,3.604855 0.011067,1.985442 -1.5528621,3.604851 -3.4939355,3.604851 z"
     id="path1-9"
     style="display:inline;fill:#ffffff;fill-opacity:1;stroke-width:0.110919" /></svg>
