<?xml version="1.0" encoding="UTF-8" standalone="no"?>
<!-- Uploaded to: SVG Repo, www.svgrepo.com, Transformed by: SVG Repo Mixer Tools -->

<svg
   width="65px"
   height="65px"
   viewBox="-8.4 -8.4 40.80 40.80"
   fill="none"
   stroke="#ffffff"
   version="1.1"
   id="svg1"
   sodipodi:docname="Paal.svg"
   xml:space="preserve"
   inkscape:version="1.3.2 (091e20e, 2023-11-25, custom)"
   xmlns:inkscape="http://www.inkscape.org/namespaces/inkscape"
   xmlns:sodipodi="http://sodipodi.sourceforge.net/DTD/sodipodi-0.dtd"
   xmlns="http://www.w3.org/2000/svg"
   xmlns:svg="http://www.w3.org/2000/svg"><defs
     id="defs1"><linearGradient
       id="swatch7"
       inkscape:swatch="solid"><stop
         style="stop-color:#ffffff;stop-opacity:0;"
         offset="0"
         id="stop7" /></linearGradient></defs><sodipodi:namedview
     id="namedview1"
     pagecolor="#ffffff"
     bordercolor="#000000"
     borderopacity="0.25"
     inkscape:showpageshadow="2"
     inkscape:pageopacity="0.0"
     inkscape:pagecheckerboard="0"
     inkscape:deskcolor="#d1d1d1"
     inkscape:zoom="7.1423077"
     inkscape:cx="44.103393"
     inkscape:cy="38.502962"
     inkscape:window-width="1941"
     inkscape:window-height="1490"
     inkscape:window-x="790"
     inkscape:window-y="409"
     inkscape:window-maximized="0"
     inkscape:current-layer="svg1" /><g
     id="SVGRepo_bgCarrier"
     stroke-width="0"
     style="display:inline"><rect
       x="-8.3999996"
       y="-8.3999996"
       width="40.799999"
       height="40.799999"
       rx="20.4"
       fill="#004699"
       strokewidth="0"
       id="rect1" /></g><g
     id="SVGRepo_tracerCarrier"
     stroke-linecap="round"
     stroke-linejoin="round"
     style="display:inline" /><g
     id="SVGRepo_iconCarrier"
     style="display:none"
     inkscape:label="Paal"
     transform="translate(0.07103343,-0.44900262)"><g
       id="g1"
       transform="matrix(0.34415662,0,0,0.34415662,5.1625078,-4.6475851)"
       style="display:inline;stroke:none;stroke-opacity:1"><path
         fill="#010101"
         d="M 26.608,7.793 C 26.518,6.18 26.071,1.156 19.352,0.976 12.634,0.797 12.454,7.605 12.454,7.605 c 0,0 7.912,2.014 14.154,0.188 z"
         id="path1-1"
         style="display:inline;fill:#ffffff;fill-opacity:1;stroke:none;stroke-opacity:1" /><path
         fill="#010101"
         d="m 26.738,15.141 c -6.795,1.638 -14.486,0 -14.486,0 0,0 -3.114,61.58 -3.24,80.237 -0.012,1.721 4.046,3.003 10.726,3.003 6.682,0 10.573,-1.643 10.572,-3.584 C 30.306,84.296 26.738,15.141 26.738,15.141 Z m -13.152,12.188 0.939,-0.966 c 0.07,-0.072 0.164,-0.113 0.264,-0.113 0.099,0 0.192,0.04 0.264,0.111 l 1.498,1.542 1.499,-1.541 c 0.069,-0.072 0.163,-0.113 0.263,-0.113 0.101,0 0.195,0.041 0.265,0.114 l 0.939,0.964 c 0.144,0.151 0.144,0.393 0.001,0.541 l -1.5,1.542 1.499,1.542 c 0.145,0.148 0.145,0.39 0.001,0.54 l -0.94,0.967 c -0.07,0.072 -0.164,0.112 -0.263,0.112 -0.101,0 -0.193,-0.04 -0.264,-0.112 l -1.5,-1.542 -1.499,1.542 c -0.07,0.072 -0.164,0.112 -0.263,0.112 -0.099,0 -0.193,-0.04 -0.263,-0.112 l -0.939,-0.966 c -0.145,-0.149 -0.145,-0.392 0,-0.541 l 1.499,-1.542 -1.499,-1.54 c -0.071,-0.072 -0.109,-0.169 -0.109,-0.271 -10e-4,-0.101 0.038,-0.198 0.108,-0.27 z m 5.927,12.481 -0.973,1.001 c -0.073,0.075 -0.17,0.115 -0.271,0.115 -0.103,0 -0.2,-0.041 -0.272,-0.114 l -1.554,-1.597 -1.552,1.596 c -0.073,0.075 -0.169,0.115 -0.272,0.115 -0.103,0 -0.199,-0.041 -0.271,-0.114 L 13.375,39.81 c -0.073,-0.074 -0.113,-0.173 -0.113,-0.279 0,-0.106 0.04,-0.206 0.113,-0.282 l 1.551,-1.595 -1.551,-1.596 c -0.073,-0.074 -0.113,-0.173 -0.113,-0.279 0,-0.106 0.041,-0.207 0.113,-0.281 l 0.972,-1 c 0.073,-0.075 0.17,-0.117 0.272,-0.117 0.102,0 0.199,0.041 0.272,0.115 l 1.552,1.597 1.552,-1.595 c 0.072,-0.075 0.17,-0.117 0.272,-0.117 0.104,0 0.201,0.042 0.273,0.118 l 0.973,0.999 c 0.149,0.156 0.149,0.408 0,0.561 l -1.552,1.596 1.552,1.596 c 0.15,0.153 0.15,0.404 0,0.559 z m 0.338,-16.432 -0.926,0.951 c -0.069,0.071 -0.161,0.11 -0.259,0.11 -0.099,0 -0.19,-0.039 -0.26,-0.111 l -1.477,-1.518 -1.476,1.518 c -0.07,0.072 -0.162,0.11 -0.261,0.11 -0.098,0 -0.19,-0.039 -0.26,-0.111 l -0.925,-0.951 c -0.143,-0.147 -0.143,-0.386 0,-0.533 l 1.477,-1.518 -1.477,-1.518 c -0.143,-0.148 -0.143,-0.387 0,-0.533 l 0.926,-0.952 c 0.072,-0.071 0.164,-0.11 0.26,-0.11 0.098,0 0.189,0.039 0.26,0.11 l 1.476,1.518 1.476,-1.518 c 0.071,-0.071 0.163,-0.11 0.261,-0.11 0.098,0 0.188,0.039 0.258,0.11 l 0.927,0.952 c 0.142,0.146 0.142,0.385 0.001,0.532 l -1.478,1.52 1.477,1.518 c 0.141,0.147 0.141,0.386 0,0.534 z"
         id="path2"
         style="fill:#ffffff;fill-opacity:1;stroke:none;stroke-width:0.999473;stroke-dasharray:none;stroke-opacity:1" /><path
         fill="#010101"
         d="m 27.799,13.439 c 0,0.327 -0.134,0.593 -0.463,0.593 0,0 -3.714,0.627 -4.985,0.716 -1.317,0.093 -3.935,0.088 -5.252,0 -1.341,-0.089 -5.282,-0.716 -5.282,-0.716 -0.327,0 -0.553,-0.266 -0.553,-0.593 V 9.25 c 0,-0.328 0.243,-0.592 0.57,-0.592 0,0 3.768,0.627 5.04,0.717 1.251,0.089 3.76,0.094 5.011,0 1.405,-0.106 5.454,-0.717 5.454,-0.717 0.33,0 0.461,0.265 0.461,0.592 v 4.189 z"
         id="path3"
         style="fill:#ffffff;fill-opacity:1;stroke:none;stroke-opacity:1" /></g><rect
       style="fill:#010101;fill-opacity:1;stroke:none;stroke-width:0.627692;stroke-opacity:1"
       id="rect121"
       width="3.0100167"
       height="8.3928919"
       x="9.4843302"
       y="1.3770601" /><path
       style="fill:#ffffff;fill-opacity:1;stroke:none;stroke-width:0.0700054;stroke-opacity:1"
       d="m 30.41734,59.808231 c -2.152136,-0.210509 -3.546706,-0.704358 -3.789059,-1.341793 -0.173958,-0.457545 0.362947,-15.433651 1.163695,-32.459437 0.47085,-10.011372 0.550308,-11.555279 0.597464,-11.609024 0.02805,-0.03197 0.377675,-0.0081 0.776934,0.05316 2.175692,0.333558 4.59493,0.333365 6.421788,-5.14e-4 0.322009,-0.05885 0.599543,-0.09293 0.616744,-0.07573 0.03814,0.03814 0.119933,1.586741 0.61435,11.632108 0.825158,16.765236 1.233841,26.009744 1.340053,30.312331 l 0.04493,1.82014 -0.166463,0.242067 c -0.470865,0.684725 -1.57676,1.129537 -3.403678,1.369025 -0.721097,0.09453 -3.457351,0.131948 -4.216759,0.05767 z"
       id="path121"
       transform="matrix(0.62769231,0,0,0.62769231,-8.4,-8.4)" /><path
       style="fill:#ffffff;fill-opacity:1;stroke:none;stroke-width:0.0700054;stroke-opacity:1"
       d="m 30.907377,14.024461 c -0.856335,-0.08463 -2.919931,-0.402131 -2.99273,-0.460456 -0.06425,-0.05148 -0.08751,-0.409762 -0.08751,-1.348065 0,-1.059961 0.01821,-1.293073 0.106775,-1.366572 0.08696,-0.07217 0.35655,-0.05102 1.452612,0.113937 1.182969,0.178042 1.532214,0.202112 2.885954,0.1989 1.290023,-0.0031 1.765473,-0.03522 2.927873,-0.198029 0.763264,-0.106907 1.433359,-0.176875 1.4891,-0.155486 0.08463,0.03248 0.09821,0.267078 0.08236,1.422712 l -0.01899,1.383821 -0.770059,0.122834 c -1.622153,0.258753 -2.460286,0.332891 -3.63819,0.321822 -0.6557,-0.0062 -1.30244,-0.0221 -1.437201,-0.03542 z"
       id="path122"
       transform="matrix(0.62769231,0,0,0.62769231,-8.4,-8.4)" /><path
       style="fill:#ffffff;fill-opacity:1;stroke:#ffffff;stroke-width:0;stroke-dasharray:none;stroke-opacity:1"
       d="m 31.250725,10.562081 c -0.67954,-0.06018 -2.720472,-0.384906 -2.777477,-0.441911 -0.08425,-0.08425 0.222651,-1.1896033 0.467713,-1.6845211 0.640884,-1.2943065 1.604567,-1.8551427 3.187687,-1.8551427 1.349841,0 2.261057,0.3208839 2.994784,1.0546118 0.468751,0.46875 0.774857,1.0572261 0.929403,1.786736 0.155832,0.735579 0.147325,0.782206 -0.157574,0.863719 -1.21701,0.325359 -2.936852,0.427749 -4.644536,0.276508 z"
       id="path123"
       transform="matrix(0.62769231,0,0,0.62769231,-8.4,-8.4)" /></g><path
     fill="#000000"
     d="m 23.9761,16.499691 c -2.409066,0 -4.36124,-2.007554 -4.36124,-4.49969 0,-2.4782919 1.952174,-4.4996919 4.36124,-4.4996919 2.409067,0 4.36124,2.007555 4.36124,4.4996919 0,2.478291 -1.952173,4.49969 -4.36124,4.49969 z m -11.976101,0 c -2.4090655,0 -4.3612385,-2.007554 -4.3612385,-4.49969 0,-2.4782919 1.952173,-4.4996919 4.3612385,-4.4996919 2.409066,0 4.36124,2.007555 4.36124,4.4996919 0,2.478291 -1.952174,4.49969 -4.36124,4.49969 z m -11.9761005,0 c -2.409065,0 -4.361239,-2.021399 -4.361239,-4.49969 0,-2.4782919 1.952174,-4.4996919 4.361239,-4.4996919 2.409066,0 4.361239,2.007555 4.361239,4.4996919 0.01384,2.478291 -1.938329,4.49969 -4.361239,4.49969 z"
     id="path1"
     style="display:none;fill:#ffffff;fill-opacity:1;stroke-width:0.138452"
     inkscape:label="Overig" /><g
     style="fill:#000000"
     id="g3"
     transform="matrix(0.45784454,0,0,0.45784454,-92.265669,-89.255261)"><g
       id="g2">
	
	<path
   d="m 236.41996,204.21485 c 1.27986,-1.79459 1.98627,-3.96001 1.98627,-6.2004 0,-5.88611 -4.78873,-10.6747 -10.67471,-10.6747 -5.88597,0 -10.67455,4.78859 -10.67455,10.6747 0,2.24039 0.70669,4.40567 1.98684,6.20025 -1.25957,0.33285 -2.19075,1.48232 -2.19075,2.84506 v 2.87413 c 0,1.24115 0.77361,2.30285 1.86294,2.73441 v 41.22554 c 0,0.59618 0.48322,1.07926 1.07925,1.07926 h 15.87283 c 0.59618,0 1.07926,-0.48308 1.07926,-1.07926 v -41.22569 c 1.08933,-0.4317 1.86279,-1.49326 1.86279,-2.7344 v -2.87413 c 0,-1.36245 -0.93089,-2.5115 -2.19017,-2.84477 z m -1.83128,25.95293 -3.93554,3.93539 c -0.42148,0.42149 -0.42163,1.10459 -2.9e-4,1.52607 0.21096,0.21096 0.48711,0.3163 0.7634,0.3163 0.27614,0 0.55243,-0.10534 0.7631,-0.31601 l 2.40933,-2.40933 v 8.35905 l -11.23519,11.23534 h -2.47912 v -5.87993 l 8.25256,-8.25256 c 0.42149,-0.42163 0.42149,-1.10487 0,-1.52636 -0.42177,-0.42134 -1.10487,-0.4212 -1.52636,0 l -6.7262,6.72635 v -8.35919 l 13.71431,-13.71403 z m 0,-11.41191 -13.71431,13.71417 v -8.35905 l 11.23519,-11.23519 h 2.47912 z m -5.53183,-5.87993 -8.18234,8.18249 v -8.18249 z m -2.65065,39.93865 8.18248,-8.18234 v 8.18234 z m 10.04542,-42.88084 c 0,0.43213 -0.3514,0.78368 -0.78354,0.78368 h -15.87283 c -0.43213,0 -0.78368,-0.35155 -0.78368,-0.78368 v -2.87413 c 0,-0.43213 0.35155,-0.78368 0.78368,-0.78368 h 1.57442 c 0.4484,0 0.85002,-0.2773 1.00903,-0.69648 0.15902,-0.41919 0.0423,-0.89305 -0.29326,-1.19035 -1.82395,-1.61658 -2.86996,-3.94015 -2.86996,-6.37466 0,-4.69577 3.82028,-8.51619 8.51604,-8.51619 4.69577,0 8.51619,3.82042 8.51619,8.51619 0,2.41581 -1.02961,4.7221 -2.82693,6.3371 -0.095,0.0747 -0.17138,0.16261 -0.2311,0.25643 -0.15268,0.23399 -0.20923,0.5202 -0.15498,0.79693 0.0178,0.0912 0.0473,0.17901 0.0871,0.26146 0.0517,0.10721 0.11987,0.20334 0.20088,0.28593 0.0763,0.078 0.16491,0.14506 0.26392,0.19758 0.10303,0.055 0.21527,0.0933 0.33284,0.11253 0.0599,0.01 0.11728,0.015 0.18074,0.0141 l 1.5678,-7.2e-4 c 0.43213,0 0.78354,0.35155 0.78354,0.78368 v 2.87428 z"
   id="path2-2"
   style="stroke-width:0.143901;stroke:#ffffff;stroke-opacity:1;fill:#ffffff;fill-opacity:1" />
</g></g></svg>
