<!DOCTYPE svg PUBLIC "-//W3C//DTD SVG 1.1//EN" "http://www.w3.org/Graphics/SVG/1.1/DTD/svg11.dtd">
<!-- Uploaded to: SVG Repo, www.svgrepo.com, Transformed by: SVG Repo Mixer Tools -->
<svg fill="#ffffff" height="65px" width="65px" version="1.1" id="Layer_1" xmlns="http://www.w3.org/2000/svg" xmlns:xlink="http://www.w3.org/1999/xlink" viewBox="-102.4 -102.4 716.80 716.80" xml:space="preserve" stroke="#ffffff">
<g id="SVGRepo_bgCarrier" stroke-width="0" transform="translate(0,0), scale(1)">
<rect x="-102.4" y="-102.4" width="716.80" height="716.80" rx="358.4" fill="#004699" strokewidth="0"/>
</g>
<g id="SVGRepo_tracerCarrier" stroke-linecap="round" stroke-linejoin="round" stroke="#CCCCCC" stroke-width="3.072"/>
<g id="SVGRepo_iconCarrier"> <g transform="translate(0 -1)"> <g> <g> <path d="M337.067,111.933c0-9.387-7.68-17.067-17.067-17.067h-17.067V129H320C329.387,129,337.067,121.32,337.067,111.933z"/> <path d="M405.333,26.6H234.667c-5.12,0-8.533,3.413-8.533,8.533v51.2H192V26.6C192,12.093,180.907,1,166.4,1 c-14.507,0-25.6,11.093-25.6,25.6v435.2c-23.893,0-42.667,18.773-42.667,42.667c0,5.12,3.413,8.533,8.533,8.533h119.467 c5.12,0,8.533-3.413,8.533-8.533c0-23.893-18.773-42.667-42.667-42.667V257h34.133v51.2c0,5.12,3.413,8.533,8.533,8.533h170.667 c5.12,0,8.533-3.413,8.533-8.533V35.133C413.867,30.013,410.453,26.6,405.333,26.6z M226.133,239.933H192V103.4h34.133V239.933z M285.867,86.333c0-5.12,3.413-8.533,8.533-8.533H320c18.773,0,34.133,15.36,34.133,34.133s-15.36,34.133-34.133,34.133h-17.067 v25.6c0,5.12-3.413,8.533-8.533,8.533s-8.533-3.413-8.533-8.533V86.333z M285.867,205.8h68.267c5.12,0,8.533,3.413,8.533,8.533 c0,5.12-3.413,8.533-8.533,8.533h-68.267c-5.12,0-8.533-3.413-8.533-8.533C277.333,209.213,280.747,205.8,285.867,205.8z M371.2,265.533H268.8c-5.12,0-8.533-3.413-8.533-8.533s3.413-8.533,8.533-8.533h102.4c5.12,0,8.533,3.413,8.533,8.533 S376.32,265.533,371.2,265.533z"/> </g> </g> </g> </g>
</svg>