<!DOCTYPE svg PUBLIC "-//W3C//DTD SVG 1.1//EN" "http://www.w3.org/Graphics/SVG/1.1/DTD/svg11.dtd">
<!-- Uploaded to: SVG Repo, www.svgrepo.com, Transformed by: SVG Repo Mixer Tools -->
<svg fill="#ffffff" height="65px" width="65px" version="1.1" id="Layer_1" xmlns="http://www.w3.org/2000/svg" xmlns:xlink="http://www.w3.org/1999/xlink" viewBox="-102.4 -102.4 716.80 716.80" xml:space="preserve" stroke="#ffffff">
<g id="SVGRepo_bgCarrier" stroke-width="0">
<rect x="-102.4" y="-102.4" width="716.80" height="716.80" rx="358.4" fill="#004699" strokewidth="0"/>
</g>
<g id="SVGRepo_tracerCarrier" stroke-linecap="round" stroke-linejoin="round"/>
<g id="SVGRepo_iconCarrier"> <g> <g> <path d="M271.335,9.572V0h-31.347v9.729c-29.594,7.213-51.632,33.93-51.632,65.713c0,0.18,0.003,0.358,0.008,0.541v15.463h16.128 l10.164,93.21h25.67v209.27H222.4l-8.764,86.727H195.66V512h14.809h91.061h14.809v-31.347h-17.976l-8.764-86.727h-17.926v-209.27 h25.67l10.164-93.21h16.128V75.984c0.005-0.18,0.008-0.362,0.008-0.542C323.644,43.418,301.268,16.541,271.335,9.572z M245.142,480.653l5.595-55.38h10.522l5.595,55.38H245.142z M269.229,153.309h-26.459l-6.745-61.863h39.948L269.229,153.309z M223.107,60.099C228.9,47.733,241.465,39.145,256,39.145s27.1,8.588,32.892,20.954H223.107z"/> </g> </g> </g>
</svg>