<!DOCTYPE svg PUBLIC "-//W3C//DTD SVG 1.1//EN" "http://www.w3.org/Graphics/SVG/1.1/DTD/svg11.dtd">
<!-- Uploaded to: SVG Repo, www.svgrepo.com, Transformed by: SVG Repo Mixer Tools -->
<svg fill="#ffffff" width="65px" height="65px" viewBox="-5.04 -5.04 34.08 34.08" id="flood" data-name="Line Color" xmlns="http://www.w3.org/2000/svg" class="icon line-color" stroke="#ffffff">
<g id="SVGRepo_bgCarrier" stroke-width="0">
<rect x="-5.04" y="-5.04" width="34.08" height="34.08" rx="17.04" fill="#004699" strokewidth="0"/>
</g>
<g id="SVGRepo_tracerCarrier" stroke-linecap="round" stroke-linejoin="round"/>
<g id="SVGRepo_iconCarrier">
<polyline id="primary" points="4 9.71 12 4 20 9.71" style="fill: none; stroke: #ffffff; stroke-linecap: round; stroke-linejoin: round; stroke-width: 2;"/>
<path id="primary-2" data-name="primary" d="M18,16V8.29m-12,0V16" style="fill: none; stroke: #ffffff; stroke-linecap: round; stroke-linejoin: round; stroke-width: 2;"/>
<path id="secondary" d="M3,19.5c1.5,0,1.5.5,3,.5s1.5-.5,3-.5,1.5.5,3,.5,1.5-.5,3-.5,1.5.5,3,.5,1.5-.5,3-.5" style="fill: none; stroke: #ffffff; stroke-linecap: round; stroke-linejoin: round; stroke-width: 2;"/>
<path id="secondary-2" data-name="secondary" d="M3,15.5c1.5,0,1.5.5,3,.5s1.5-.5,3-.5,1.5.5,3,.5,1.5-.5,3-.5,1.5.5,3,.5,1.5-.5,3-.5" style="fill: none; stroke: #ffffff; stroke-linecap: round; stroke-linejoin: round; stroke-width: 2;"/>
</g>
</svg>